REM DIRINDEX 1\2\4,1\2\5,1\3\6,1\3\7,1\3\8
REM DIRNAME cjc094,folder01,folder02,folder03,folder04,folder05,folder06,folder07
TITLE ""
FILE "LV1_007_WORDS.mp3" MP3
  TRACK 01 AUDIO
    TITLE "0:"
    INDEX 01 00:00:00
  TRACK 02 AUDIO
    TITLE "6:cjc094_0263"
    INDEX 01 00:00:05
  TRACK 03 AUDIO
    TITLE "0:"
    INDEX 01 00:01:58
  TRACK 04 AUDIO
    TITLE "7:cjc094_0264"
    INDEX 01 00:02:49
  TRACK 05 AUDIO
    TITLE "0:"
    INDEX 01 00:03:47
  TRACK 06 AUDIO
    TITLE "8:cjc094_0265"
    INDEX 01 00:03:61
  TRACK 07 AUDIO
    TITLE "0:"
    INDEX 01 00:04:66
  TRACK 08 AUDIO
    TITLE "7:cjc094_0266"
    INDEX 01 00:05:40
  TRACK 09 AUDIO
    TITLE "0:"
    INDEX 01 00:06:41
  TRACK 10 AUDIO
    TITLE "8:cjc094_0267"
    INDEX 01 00:06:59
  TRACK 11 AUDIO
    TITLE "0:"
    INDEX 01 00:07:68
  TRACK 12 AUDIO
    TITLE "7:cjc094_0268"
    INDEX 01 00:08:50
  TRACK 13 AUDIO
    TITLE "0:"
    INDEX 01 00:09:49
  TRACK 14 AUDIO
    TITLE "8:cjc094_0269"
    INDEX 01 00:09:71
  TRACK 15 AUDIO
    TITLE "0:"
    INDEX 01 00:10:61
  TRACK 16 AUDIO
    TITLE "7:cjc094_0270"
    INDEX 01 00:11:35
  TRACK 17 AUDIO
    TITLE "0:"
    INDEX 01 00:12:24
  TRACK 18 AUDIO
    TITLE "8:cjc094_0271"
    INDEX 01 00:12:40
  TRACK 19 AUDIO
    TITLE "0:"
    INDEX 01 00:13:47
  TRACK 20 AUDIO
    TITLE "7:cjc094_0272"
    INDEX 01 00:14:23
  TRACK 21 AUDIO
    TITLE "0:"
    INDEX 01 00:15:15
  TRACK 22 AUDIO
    TITLE "8:cjc094_0273"
    INDEX 01 00:15:34
  TRACK 23 AUDIO
    TITLE "0:"
    INDEX 01 00:17:06
  TRACK 24 AUDIO
    TITLE "7:cjc094_0274"
    INDEX 01 00:17:51
  TRACK 25 AUDIO
    TITLE "0:"
    INDEX 01 00:18:42
  TRACK 26 AUDIO
    TITLE "8:cjc094_0275"
    INDEX 01 00:18:66
  TRACK 27 AUDIO
    TITLE "0:"
    INDEX 01 00:20:61
  TRACK 28 AUDIO
    TITLE "7:cjc094_0276"
    INDEX 01 00:21:41
  TRACK 29 AUDIO
    TITLE "0:"
    INDEX 01 00:22:38
  TRACK 30 AUDIO
    TITLE "8:cjc094_0277"
    INDEX 01 00:22:52
  TRACK 31 AUDIO
    TITLE "0:"
    INDEX 01 00:25:39
  TRACK 32 AUDIO
    TITLE "7:cjc094_0278"
    INDEX 01 00:26:18
  TRACK 33 AUDIO
    TITLE "0:"
    INDEX 01 00:27:18
  TRACK 34 AUDIO
    TITLE "8:cjc094_0279"
    INDEX 01 00:27:39
  TRACK 35 AUDIO
    TITLE "0:"
    INDEX 01 00:28:66
  TRACK 36 AUDIO
    TITLE "7:cjc094_0280"
    INDEX 01 00:29:46
  TRACK 37 AUDIO
    TITLE "0:"
    INDEX 01 00:30:42
  TRACK 38 AUDIO
    TITLE "8:cjc094_0281"
    INDEX 01 00:30:59
  TRACK 39 AUDIO
    TITLE "0:"
    INDEX 01 00:32:00
  TRACK 40 AUDIO
    TITLE "7:cjc094_0282"
    INDEX 01 00:32:48
  TRACK 41 AUDIO
    TITLE "0:"
    INDEX 01 00:33:44
  TRACK 42 AUDIO
    TITLE "8:cjc094_0283"
    INDEX 01 00:33:60
  TRACK 43 AUDIO
    TITLE "0:"
    INDEX 01 00:35:74
  TRACK 44 AUDIO
    TITLE "7:cjc094_0284"
    INDEX 01 00:36:35
  TRACK 45 AUDIO
    TITLE "0:"
    INDEX 01 00:37:34
  TRACK 46 AUDIO
    TITLE "8:cjc094_0285"
    INDEX 01 00:37:52
  TRACK 47 AUDIO
    TITLE "0:"
    INDEX 01 00:38:69
  TRACK 48 AUDIO
    TITLE "7:cjc094_0286"
    INDEX 01 00:39:45
  TRACK 49 AUDIO
    TITLE "0:"
    INDEX 01 00:40:64
  TRACK 50 AUDIO
    TITLE "8:cjc094_0287"
    INDEX 01 00:41:06
  TRACK 51 AUDIO
    TITLE "0:"
    INDEX 01 00:44:32
  TRACK 52 AUDIO
    TITLE "7:cjc094_0288"
    INDEX 01 00:45:08
  TRACK 53 AUDIO
    TITLE "0:"
    INDEX 01 00:46:06
  TRACK 54 AUDIO
    TITLE "8:cjc094_0289"
    INDEX 01 00:46:23
  TRACK 55 AUDIO
    TITLE "0:"
    INDEX 01 00:47:21
  TRACK 56 AUDIO
    TITLE "7:cjc094_0290"
    INDEX 01 00:47:70
  TRACK 57 AUDIO
    TITLE "0:"
    INDEX 01 00:48:69
  TRACK 58 AUDIO
    TITLE "8:cjc094_0291"
    INDEX 01 00:49:10
  TRACK 59 AUDIO
    TITLE "0:"
    INDEX 01 00:50:39
  TRACK 60 AUDIO
    TITLE "7:cjc094_0292"
    INDEX 01 00:51:18
  TRACK 61 AUDIO
    TITLE "0:"
    INDEX 01 00:52:12
  TRACK 62 AUDIO
    TITLE "8:cjc094_0293"
    INDEX 01 00:52:36
  TRACK 63 AUDIO
    TITLE "0:"
    INDEX 01 00:55:32
